<svg viewBox="0 0 24 24" xmlns="http://www.w3.org/2000/svg" aria-hidden="true">
  <path
    fill="#FF385C"
    d="M12 3.5c-2.33 0-4.35 1.66-5.27 4.33l-1.91 5.63c-.68 1.99-.63 3.82.56 4.96 1.08 1.04 2.61 1.33 4.26.64 1.03-.43 1.79-1.18 2.36-2.08.57.9 1.33 1.65 2.36 2.08 1.65.69 3.18.4 4.26-.64 1.19-1.14 1.24-2.97.56-4.96l-1.91-5.63C16.35 5.16 14.33 3.5 12 3.5zm0 3c1.14 0 2.25.93 2.85 2.65l1.77 5.23c.42 1.26.36 2.15-.08 2.56-.37.36-.9.36-1.49.1-1.08-.45-1.82-1.72-2.16-2.41a1.2 1.2 0 0 0-2.18 0c-.34.69-1.08 1.96-2.16 2.41-.59.25-1.12.25-1.49-.1-.44-.41-.5-1.3-.08-2.56l1.77-5.23C9.75 7.43 10.86 6.5 12 6.5z"
  />
</svg>
